<svg id="visual" viewBox="0 0 900 600" width="900" height="600" xmlns="http://www.w3.org/2000/svg" xmlns:xlink="http://www.w3.org/1999/xlink" version="1.1"><g transform="translate(455.39183390633536 287.5777678546501)"><path d="M120.9 -179.6C157.2 -164.9 187.3 -132.1 204.1 -93.7C220.8 -55.3 224.2 -11.3 218.6 31.8C213 74.9 198.3 117 172.4 152.5C146.5 188 109.3 216.8 66.1 233.1C22.9 249.5 -26.3 253.3 -62 232.9C-97.7 212.5 -119.9 167.8 -144.4 130.3C-169 92.7 -195.8 62.4 -212.9 23.2C-230 -15.9 -237.4 -63.8 -227.3 -111.2C-217.2 -158.6 -189.7 -205.5 -148.9 -218.1C-108.1 -230.8 -54.1 -209.1 -5.9 -200C42.4 -190.9 84.7 -194.3 120.9 -179.6" fill="#fdf2e9"></path></g></svg>