<svg id="visual" viewBox="0 0 900 600" width="900" height="600" xmlns="http://www.w3.org/2000/svg" xmlns:xlink="http://www.w3.org/1999/xlink" version="1.1"><g transform="translate(443.32093080963784 302.5729848627368)"><path d="M134.3 -208.7C178.9 -180.4 223.2 -151.2 249.9 -109.3C276.6 -67.3 285.8 -12.4 269.6 32.5C253.3 77.4 211.7 112.4 175.3 149C139 185.5 108 223.7 66.8 243C25.5 262.3 -25.8 262.6 -70 246.1C-114.2 229.6 -151.2 196.3 -187.8 159.6C-224.4 122.9 -260.7 82.8 -264 39.8C-267.4 -3.2 -237.9 -49.2 -209.9 -89.8C-181.9 -130.4 -155.6 -165.7 -120.9 -198.6C-86.1 -231.4 -43.1 -261.7 0.9 -263.1C44.9 -264.5 89.7 -237 134.3 -208.7" fill="#fdf2e9"></path></g></svg>