<svg id="visual" viewBox="0 0 900 600" width="900" height="600" xmlns="http://www.w3.org/2000/svg" xmlns:xlink="http://www.w3.org/1999/xlink" version="1.1"><path d="M0 460L25 465.8C50 471.7 100 483.3 150 487.8C200 492.3 250 489.7 300 488.7C350 487.7 400 488.3 450 489.8C500 491.3 550 493.7 600 495.2C650 496.7 700 497.3 750 494.3C800 491.3 850 484.7 875 481.3L900 478L900 601L875 601C850 601 800 601 750 601C700 601 650 601 600 601C550 601 500 601 450 601C400 601 350 601 300 601C250 601 200 601 150 601C100 601 50 601 25 601L0 601Z" fill="#fdf2e9"></path><path d="M0 482L25 484.8C50 487.7 100 493.3 150 496.8C200 500.3 250 501.7 300 498.5C350 495.3 400 487.7 450 489.3C500 491 550 502 600 507.2C650 512.3 700 511.7 750 508.3C800 505 850 499 875 496L900 493L900 601L875 601C850 601 800 601 750 601C700 601 650 601 600 601C550 601 500 601 450 601C400 601 350 601 300 601C250 601 200 601 150 601C100 601 50 601 25 601L0 601Z" fill="#fcdbc0"></path><path d="M0 502L25 506.8C50 511.7 100 521.3 150 525.2C200 529 250 527 300 521.8C350 516.7 400 508.3 450 510C500 511.7 550 523.3 600 524.2C650 525 700 515 750 514C800 513 850 521 875 525L900 529L900 601L875 601C850 601 800 601 750 601C700 601 650 601 600 601C550 601 500 601 450 601C400 601 350 601 300 601C250 601 200 601 150 601C100 601 50 601 25 601L0 601Z" fill="#f9c498"></path><path d="M0 546L25 546.3C50 546.7 100 547.3 150 548.5C200 549.7 250 551.3 300 550.7C350 550 400 547 450 544.2C500 541.3 550 538.7 600 539.7C650 540.7 700 545.3 750 544.8C800 544.3 850 538.7 875 535.8L900 533L900 601L875 601C850 601 800 601 750 601C700 601 650 601 600 601C550 601 500 601 450 601C400 601 350 601 300 601C250 601 200 601 150 601C100 601 50 601 25 601L0 601Z" fill="#f4ad72"></path><path d="M0 561L25 560C50 559 100 557 150 557.5C200 558 250 561 300 561C350 561 400 558 450 557.3C500 556.7 550 558.3 600 556.3C650 554.3 700 548.7 750 547.7C800 546.7 850 550.3 875 552.2L900 554L900 601L875 601C850 601 800 601 750 601C700 601 650 601 600 601C550 601 500 601 450 601C400 601 350 601 300 601C250 601 200 601 150 601C100 601 50 601 25 601L0 601Z" fill="#ee964c"></path><path d="M0 581L25 579.2C50 577.3 100 573.7 150 571.5C200 569.3 250 568.7 300 570C350 571.3 400 574.7 450 573.8C500 573 550 568 600 567.5C650 567 700 571 750 573.2C800 575.3 850 575.7 875 575.8L900 576L900 601L875 601C850 601 800 601 750 601C700 601 650 601 600 601C550 601 500 601 450 601C400 601 350 601 300 601C250 601 200 601 150 601C100 601 50 601 25 601L0 601Z" fill="#e67e22"></path></svg>