<svg id="visual" viewBox="0 0 900 600" width="900" height="600" xmlns="http://www.w3.org/2000/svg" xmlns:xlink="http://www.w3.org/1999/xlink" version="1.1"><path d="M415 600L397.8 585.7C380.7 571.3 346.3 542.7 338.7 514.2C331 485.7 350 457.3 355 428.8C360 400.3 351 371.7 339.7 343C328.3 314.3 314.7 285.7 324.3 257C334 228.3 367 199.7 378.2 171.2C389.3 142.7 378.7 114.3 366.2 85.8C353.7 57.3 339.3 28.7 332.2 14.3L325 0L900 0L900 14.3C900 28.7 900 57.3 900 85.8C900 114.3 900 142.7 900 171.2C900 199.7 900 228.3 900 257C900 285.7 900 314.3 900 343C900 371.7 900 400.3 900 428.8C900 457.3 900 485.7 900 514.2C900 542.7 900 571.3 900 585.7L900 600Z" fill="#fdf2e9"></path><path d="M357 600L378.5 585.7C400 571.3 443 542.7 458 514.2C473 485.7 460 457.3 441.5 428.8C423 400.3 399 371.7 400.3 343C401.7 314.3 428.3 285.7 436.5 257C444.7 228.3 434.3 199.7 422.8 171.2C411.3 142.7 398.7 114.3 399.5 85.8C400.3 57.3 414.7 28.7 421.8 14.3L429 0L900 0L900 14.3C900 28.7 900 57.3 900 85.8C900 114.3 900 142.7 900 171.2C900 199.7 900 228.3 900 257C900 285.7 900 314.3 900 343C900 371.7 900 400.3 900 428.8C900 457.3 900 485.7 900 514.2C900 542.7 900 571.3 900 585.7L900 600Z" fill="#fdede0"></path><path d="M435 600L435.2 585.7C435.3 571.3 435.7 542.7 443 514.2C450.3 485.7 464.7 457.3 469.7 428.8C474.7 400.3 470.3 371.7 477.5 343C484.7 314.3 503.3 285.7 516 257C528.7 228.3 535.3 199.7 532.3 171.2C529.3 142.7 516.7 114.3 503.5 85.8C490.3 57.3 476.7 28.7 469.8 14.3L463 0L900 0L900 14.3C900 28.7 900 57.3 900 85.8C900 114.3 900 142.7 900 171.2C900 199.7 900 228.3 900 257C900 285.7 900 314.3 900 343C900 371.7 900 400.3 900 428.8C900 457.3 900 485.7 900 514.2C900 542.7 900 571.3 900 585.7L900 600Z" fill="#fce8d8"></path><path d="M590 600L590.3 585.7C590.7 571.3 591.3 542.7 583.2 514.2C575 485.7 558 457.3 552.5 428.8C547 400.3 553 371.7 557.2 343C561.3 314.3 563.7 285.7 573 257C582.3 228.3 598.7 199.7 596.7 171.2C594.7 142.7 574.3 114.3 569 85.8C563.7 57.3 573.3 28.7 578.2 14.3L583 0L900 0L900 14.3C900 28.7 900 57.3 900 85.8C900 114.3 900 142.7 900 171.2C900 199.7 900 228.3 900 257C900 285.7 900 314.3 900 343C900 371.7 900 400.3 900 428.8C900 457.3 900 485.7 900 514.2C900 542.7 900 571.3 900 585.7L900 600Z" fill="#fce3cf"></path><path d="M640 600L645 585.7C650 571.3 660 542.7 656.5 514.2C653 485.7 636 457.3 635.3 428.8C634.7 400.3 650.3 371.7 648 343C645.7 314.3 625.3 285.7 621 257C616.7 228.3 628.3 199.7 639.2 171.2C650 142.7 660 114.3 654.7 85.8C649.3 57.3 628.7 28.7 618.3 14.3L608 0L900 0L900 14.3C900 28.7 900 57.3 900 85.8C900 114.3 900 142.7 900 171.2C900 199.7 900 228.3 900 257C900 285.7 900 314.3 900 343C900 371.7 900 400.3 900 428.8C900 457.3 900 485.7 900 514.2C900 542.7 900 571.3 900 585.7L900 600Z" fill="#fcdec6"></path><path d="M731 600L726.5 585.7C722 571.3 713 542.7 716.5 514.2C720 485.7 736 457.3 741.2 428.8C746.3 400.3 740.7 371.7 732.7 343C724.7 314.3 714.3 285.7 707.2 257C700 228.3 696 199.7 695.8 171.2C695.7 142.7 699.3 114.3 707 85.8C714.7 57.3 726.3 28.7 732.2 14.3L738 0L900 0L900 14.3C900 28.7 900 57.3 900 85.8C900 114.3 900 142.7 900 171.2C900 199.7 900 228.3 900 257C900 285.7 900 314.3 900 343C900 371.7 900 400.3 900 428.8C900 457.3 900 485.7 900 514.2C900 542.7 900 571.3 900 585.7L900 600Z" fill="#fbdabe"></path><path d="M792 600L788.8 585.7C785.7 571.3 779.3 542.7 779 514.2C778.7 485.7 784.3 457.3 785.5 428.8C786.7 400.3 783.3 371.7 779.8 343C776.3 314.3 772.7 285.7 777.7 257C782.7 228.3 796.3 199.7 804.8 171.2C813.3 142.7 816.7 114.3 810.3 85.8C804 57.3 788 28.7 780 14.3L772 0L900 0L900 14.3C900 28.7 900 57.3 900 85.8C900 114.3 900 142.7 900 171.2C900 199.7 900 228.3 900 257C900 285.7 900 314.3 900 343C900 371.7 900 400.3 900 428.8C900 457.3 900 485.7 900 514.2C900 542.7 900 571.3 900 585.7L900 600Z" fill="#fad5b5"></path></svg>