
<svg id="visual" viewBox="0 0 900 600" width="900" height="600" xmlns="http://www.w3.org/2000/svg" xmlns:xlink="http://www.w3.org/1999/xlink" version="1.1"><path d="M469 600L453.8 585.7C438.7 571.3 408.3 542.7 401.5 514.2C394.7 485.7 411.3 457.3 415.7 428.8C420 400.3 412 371.7 401.8 343C391.7 314.3 379.3 285.7 388 257C396.7 228.3 426.3 199.7 436.3 171.2C446.3 142.7 436.7 114.3 425.5 85.8C414.3 57.3 401.7 28.7 395.3 14.3L389 0L900 0L900 14.3C900 28.7 900 57.3 900 85.8C900 114.3 900 142.7 900 171.2C900 199.7 900 228.3 900 257C900 285.7 900 314.3 900 343C900 371.7 900 400.3 900 428.8C900 457.3 900 485.7 900 514.2C900 542.7 900 571.3 900 585.7L900 600Z" fill="#fdf2e9"></path><path d="M417 600L436.2 585.7C455.3 571.3 493.7 542.7 507 514.2C520.3 485.7 508.7 457.3 492.3 428.8C476 400.3 455 371.7 456.3 343C457.7 314.3 481.3 285.7 488.5 257C495.7 228.3 486.3 199.7 476 171.2C465.7 142.7 454.3 114.3 455 85.8C455.7 57.3 468.3 28.7 474.7 14.3L481 0L900 0L900 14.3C900 28.7 900 57.3 900 85.8C900 114.3 900 142.7 900 171.2C900 199.7 900 228.3 900 257C900 285.7 900 314.3 900 343C900 371.7 900 400.3 900 428.8C900 457.3 900 485.7 900 514.2C900 542.7 900 571.3 900 585.7L900 600Z" fill="#fdede0"></path><path d="M487 600L487.2 585.7C487.3 571.3 487.7 542.7 494.2 514.2C500.7 485.7 513.3 457.3 517.8 428.8C522.3 400.3 518.7 371.7 525 343C531.3 314.3 547.7 285.7 558.8 257C570 228.3 576 199.7 573.3 171.2C570.7 142.7 559.3 114.3 547.7 85.8C536 57.3 524 28.7 518 14.3L512 0L900 0L900 14.3C900 28.7 900 57.3 900 85.8C900 114.3 900 142.7 900 171.2C900 199.7 900 228.3 900 257C900 285.7 900 314.3 900 343C900 371.7 900 400.3 900 428.8C900 457.3 900 485.7 900 514.2C900 542.7 900 571.3 900 585.7L900 600Z" fill="#fce8d8"></path><path d="M624 600L624.5 585.7C625 571.3 626 542.7 618.8 514.2C611.7 485.7 596.3 457.3 591.3 428.8C586.3 400.3 591.7 371.7 595.5 343C599.3 314.3 601.7 285.7 610 257C618.3 228.3 632.7 199.7 630.8 171.2C629 142.7 611 114.3 606.2 85.8C601.3 57.3 609.7 28.7 613.8 14.3L618 0L900 0L900 14.3C900 28.7 900 57.3 900 85.8C900 114.3 900 142.7 900 171.2C900 199.7 900 228.3 900 257C900 285.7 900 314.3 900 343C900 371.7 900 400.3 900 428.8C900 457.3 900 485.7 900 514.2C900 542.7 900 571.3 900 585.7L900 600Z" fill="#fce3cf"></path><path d="M669 600L673.5 585.7C678 571.3 687 542.7 684 514.2C681 485.7 666 457.3 665.3 428.8C664.7 400.3 678.3 371.7 676.2 343C674 314.3 656 285.7 652.2 257C648.3 228.3 658.7 199.7 668.3 171.2C678 142.7 687 114.3 682.2 85.8C677.3 57.3 658.7 28.7 649.3 14.3L640 0L900 0L900 14.3C900 28.7 900 57.3 900 85.8C900 114.3 900 142.7 900 171.2C900 199.7 900 228.3 900 257C900 285.7 900 314.3 900 343C900 371.7 900 400.3 900 428.8C900 457.3 900 485.7 900 514.2C900 542.7 900 571.3 900 585.7L900 600Z" fill="#fcdec6"></path><path d="M750 600L746 585.7C742 571.3 734 542.7 737.2 514.2C740.3 485.7 754.7 457.3 759.2 428.8C763.7 400.3 758.3 371.7 751.2 343C744 314.3 735 285.7 728.7 257C722.3 228.3 718.7 199.7 718.5 171.2C718.3 142.7 721.7 114.3 728.5 85.8C735.3 57.3 745.7 28.7 750.8 14.3L756 0L900 0L900 14.3C900 28.7 900 57.3 900 85.8C900 114.3 900 142.7 900 171.2C900 199.7 900 228.3 900 257C900 285.7 900 314.3 900 343C900 371.7 900 400.3 900 428.8C900 457.3 900 485.7 900 514.2C900 542.7 900 571.3 900 585.7L900 600Z" fill="#fbdabe"></path><path d="M804 600L801.2 585.7C798.3 571.3 792.7 542.7 792.3 514.2C792 485.7 797 457.3 798.2 428.8C799.3 400.3 796.7 371.7 793.7 343C790.7 314.3 787.3 285.7 791.7 257C796 228.3 808 199.7 815.5 171.2C823 142.7 826 114.3 820.3 85.8C814.7 57.3 800.3 28.7 793.2 14.3L786 0L900 0L900 14.3C900 28.7 900 57.3 900 85.8C900 114.3 900 142.7 900 171.2C900 199.7 900 228.3 900 257C900 285.7 900 314.3 900 343C900 371.7 900 400.3 900 428.8C900 457.3 900 485.7 900 514.2C900 542.7 900 571.3 900 585.7L900 600Z" fill="#fad5b5"></path></svg>