<svg id="visual" viewBox="0 0 900 600" width="900" height="600" xmlns="http://www.w3.org/2000/svg" xmlns:xlink="http://www.w3.org/1999/xlink" version="1.1"><path d="M0 430L25 431.8C50 433.7 100 437.3 150 442.3C200 447.3 250 453.7 300 455.3C350 457 400 454 450 447.8C500 441.7 550 432.3 600 433.7C650 435 700 447 750 452C800 457 850 455 875 454L900 453L900 601L875 601C850 601 800 601 750 601C700 601 650 601 600 601C550 601 500 601 450 601C400 601 350 601 300 601C250 601 200 601 150 601C100 601 50 601 25 601L0 601Z" fill="#fdf2e9"></path><path d="M0 503L25 499.3C50 495.7 100 488.3 150 481.7C200 475 250 469 300 471.5C350 474 400 485 450 486.2C500 487.3 550 478.7 600 481.8C650 485 700 500 750 503.3C800 506.7 850 498.3 875 494.2L900 490L900 601L875 601C850 601 800 601 750 601C700 601 650 601 600 601C550 601 500 601 450 601C400 601 350 601 300 601C250 601 200 601 150 601C100 601 50 601 25 601L0 601Z" fill="#fce3cf"></path><path d="M0 550L25 544.5C50 539 100 528 150 528C200 528 250 539 300 546.2C350 553.3 400 556.7 450 552.8C500 549 550 538 600 533.3C650 528.7 700 530.3 750 534.8C800 539.3 850 546.7 875 550.3L900 554L900 601L875 601C850 601 800 601 750 601C700 601 650 601 600 601C550 601 500 601 450 601C400 601 350 601 300 601C250 601 200 601 150 601C100 601 50 601 25 601L0 601Z" fill="#fad5b5"></path></svg>