<svg id="visual" viewBox="0 0 900 600" width="900" height="600" xmlns="http://www.w3.org/2000/svg" xmlns:xlink="http://www.w3.org/1999/xlink" version="1.1"><path d="M0 437L25 450C50 463 100 489 150 489C200 489 250 463 300 443.8C350 424.7 400 412.3 450 424.8C500 437.3 550 474.7 600 470.3C650 466 700 420 750 399.3C800 378.7 850 383.3 875 385.7L900 388L900 601L875 601C850 601 800 601 750 601C700 601 650 601 600 601C550 601 500 601 450 601C400 601 350 601 300 601C250 601 200 601 150 601C100 601 50 601 25 601L0 601Z" fill="#fdf2e9" stroke-linecap="round" stroke-linejoin="miter"></path></svg>