<?xml version="1.0" standalone="no"?><svg xmlns="http://www.w3.org/2000/svg" viewBox="0 0 1440 320"><path fill="#fdf2e9" fill-opacity="1" d="M0,0L26.7,10.7C53.3,21,107,43,160,90.7C213.3,139,267,213,320,224C373.3,235,427,181,480,149.3C533.3,117,587,107,640,122.7C693.3,139,747,181,800,213.3C853.3,245,907,267,960,234.7C1013.3,203,1067,117,1120,80C1173.3,43,1227,53,1280,80C1333.3,107,1387,149,1413,170.7L1440,192L1440,320L1413.3,320C1386.7,320,1333,320,1280,320C1226.7,320,1173,320,1120,320C1066.7,320,1013,320,960,320C906.7,320,853,320,800,320C746.7,320,693,320,640,320C586.7,320,533,320,480,320C426.7,320,373,320,320,320C266.7,320,213,320,160,320C106.7,320,53,320,27,320L0,320Z"></path></svg>