<svg id="visual" viewBox="0 0 900 600" width="900" height="600" xmlns="http://www.w3.org/2000/svg" xmlns:xlink="http://www.w3.org/1999/xlink" version="1.1"><path d="M0 413L25 420.8C50 428.7 100 444.3 150 450.5C200 456.7 250 453.3 300 452C350 450.7 400 451.3 450 453.3C500 455.3 550 458.7 600 460.7C650 462.7 700 463.3 750 459.3C800 455.3 850 446.7 875 442.3L900 438L900 601L875 601C850 601 800 601 750 601C700 601 650 601 600 601C550 601 500 601 450 601C400 601 350 601 300 601C250 601 200 601 150 601C100 601 50 601 25 601L0 601Z" fill="#fdf2e9"></path><path d="M0 443L25 446.7C50 450.3 100 457.7 150 462.3C200 467 250 469 300 465C350 461 400 451 450 453.2C500 455.3 550 469.7 600 476.3C650 483 700 482 750 477.7C800 473.3 850 465.7 875 461.8L900 458L900 601L875 601C850 601 800 601 750 601C700 601 650 601 600 601C550 601 500 601 450 601C400 601 350 601 300 601C250 601 200 601 150 601C100 601 50 601 25 601L0 601Z" fill="#fcdbc0"></path><path d="M0 470L25 476.3C50 482.7 100 495.3 150 500.3C200 505.3 250 502.7 300 495.8C350 489 400 478 450 480.3C500 482.7 550 498.3 600 499.3C650 500.3 700 486.7 750 485.2C800 483.7 850 494.3 875 499.7L900 505L900 601L875 601C850 601 800 601 750 601C700 601 650 601 600 601C550 601 500 601 450 601C400 601 350 601 300 601C250 601 200 601 150 601C100 601 50 601 25 601L0 601Z" fill="#f9c498"></path><path d="M0 528L25 528.5C50 529 100 530 150 531.7C200 533.3 250 535.7 300 534.7C350 533.7 400 529.3 450 525.5C500 521.7 550 518.3 600 519.8C650 521.3 700 527.7 750 526.8C800 526 850 518 875 514L900 510L900 601L875 601C850 601 800 601 750 601C700 601 650 601 600 601C550 601 500 601 450 601C400 601 350 601 300 601C250 601 200 601 150 601C100 601 50 601 25 601L0 601Z" fill="#f4ad72"></path><path d="M0 549L25 547.7C50 546.3 100 543.7 150 544.2C200 544.7 250 548.3 300 548.2C350 548 400 544 450 543.2C500 542.3 550 544.7 600 542C650 539.3 700 531.7 750 530.3C800 529 850 534 875 536.5L900 539L900 601L875 601C850 601 800 601 750 601C700 601 650 601 600 601C550 601 500 601 450 601C400 601 350 601 300 601C250 601 200 601 150 601C100 601 50 601 25 601L0 601Z" fill="#ee964c"></path><path d="M0 575L25 572.7C50 570.3 100 565.7 150 562.7C200 559.7 250 558.3 300 560.2C350 562 400 567 450 566C500 565 550 558 600 557C650 556 700 561 750 564C800 567 850 568 875 568.5L900 569L900 601L875 601C850 601 800 601 750 601C700 601 650 601 600 601C550 601 500 601 450 601C400 601 350 601 300 601C250 601 200 601 150 601C100 601 50 601 25 601L0 601Z" fill="#e67e22"></path></svg>