<svg id="visual" viewBox="0 0 900 600" width="900" height="600" xmlns="http://www.w3.org/2000/svg" xmlns:xlink="http://www.w3.org/1999/xlink" version="1.1"><path d="M0 374L21.5 375C43 376 86 378 128.8 385.8C171.7 393.7 214.3 407.3 257.2 403.3C300 399.3 343 377.7 385.8 374.8C428.7 372 471.3 388 514.2 395.3C557 402.7 600 401.3 642.8 404.5C685.7 407.7 728.3 415.3 771.2 415.7C814 416 857 409 878.5 405.5L900 402L900 601L878.5 601C857 601 814 601 771.2 601C728.3 601 685.7 601 642.8 601C600 601 557 601 514.2 601C471.3 601 428.7 601 385.8 601C343 601 300 601 257.2 601C214.3 601 171.7 601 128.8 601C86 601 43 601 21.5 601L0 601Z" fill="#fdf2e9"></path><path d="M0 425L21.5 434C43 443 86 461 128.8 469.5C171.7 478 214.3 477 257.2 466.3C300 455.7 343 435.3 385.8 430.7C428.7 426 471.3 437 514.2 436.8C557 436.7 600 425.3 642.8 423.7C685.7 422 728.3 430 771.2 431.5C814 433 857 428 878.5 425.5L900 423L900 601L878.5 601C857 601 814 601 771.2 601C728.3 601 685.7 601 642.8 601C600 601 557 601 514.2 601C471.3 601 428.7 601 385.8 601C343 601 300 601 257.2 601C214.3 601 171.7 601 128.8 601C86 601 43 601 21.5 601L0 601Z" fill="#fcd6b6"></path><path d="M0 471L21.5 465.8C43 460.7 86 450.3 128.8 450C171.7 449.7 214.3 459.3 257.2 468.8C300 478.3 343 487.7 385.8 488.7C428.7 489.7 471.3 482.3 514.2 474.5C557 466.7 600 458.3 642.8 456.7C685.7 455 728.3 460 771.2 460.8C814 461.7 857 458.3 878.5 456.7L900 455L900 601L878.5 601C857 601 814 601 771.2 601C728.3 601 685.7 601 642.8 601C600 601 557 601 514.2 601C471.3 601 428.7 601 385.8 601C343 601 300 601 257.2 601C214.3 601 171.7 601 128.8 601C86 601 43 601 21.5 601L0 601Z" fill="#f7b985"></path><path d="M0 487L21.5 492.2C43 497.3 86 507.7 128.8 516C171.7 524.3 214.3 530.7 257.2 534.5C300 538.3 343 539.7 385.8 534.2C428.7 528.7 471.3 516.3 514.2 508.2C557 500 600 496 642.8 494.7C685.7 493.3 728.3 494.7 771.2 500.3C814 506 857 516 878.5 521L900 526L900 601L878.5 601C857 601 814 601 771.2 601C728.3 601 685.7 601 642.8 601C600 601 557 601 514.2 601C471.3 601 428.7 601 385.8 601C343 601 300 601 257.2 601C214.3 601 171.7 601 128.8 601C86 601 43 601 21.5 601L0 601Z" fill="#f09c55"></path><path d="M0 567L21.5 565.2C43 563.3 86 559.7 128.8 554.3C171.7 549 214.3 542 257.2 540.7C300 539.3 343 543.7 385.8 547.7C428.7 551.7 471.3 555.3 514.2 553.2C557 551 600 543 642.8 541.2C685.7 539.3 728.3 543.7 771.2 545.3C814 547 857 546 878.5 545.5L900 545L900 601L878.5 601C857 601 814 601 771.2 601C728.3 601 685.7 601 642.8 601C600 601 557 601 514.2 601C471.3 601 428.7 601 385.8 601C343 601 300 601 257.2 601C214.3 601 171.7 601 128.8 601C86 601 43 601 21.5 601L0 601Z" fill="#e67e22"></path></svg>